# xmcd
#
# Track frame offsets: 
#        182
#        17225
#        29380
#        41415
#        52255
#        62615
#        73635
#        89602
#        104915
#        115092
#        127470
#        137157
#        150470
#        163615
#        178497
#        190420
#        202922
#        219220
#        231047
#        242292
#
# Disc length: 3400 seconds
#
# Revision: 2
# Processed by: cddbd v1.5.2PL0 Copyright (c) Steve Scherf et al.
# Submitted via: ExactAudioCopyFreeDBPlugin 1.0
#
DISCID=270d4614
DTITLE=Various Artist - Queens of Country
DYEAR=1995
DGENRE=Country
TTITLE0=Lynn Anderson - Blue Bayou
TTITLE1=Billie Joe Spears - You Never Can Tell
TTITLE2=Billie Joe Spears - Misty Blue
TTITLE3=Donna Fargo - Wishful Thinking
TTITLE4=Wanda Jackson - It's Only Make Believe
TTITLE5=Jeannie C. Riley - Box Of Memories
TTITLE6=Anne Murray - Both Sides Now
TTITLE7=Melba Montgomery - No Charge
TTITLE8=Jan Howard - I Wish I Could Fall In Love Again
TTITLE9=Patsy Cline - A Poor Man's Roses
TTITLE10=Barbara Mandrell - Release Me
TTITLE11=Lynn Anderson - Rose Garden
TTITLE12=Dottie West - D.I.V.O.R.C.E.
TTITLE13=Jeannie C. Riley - Harper Valley P.T.A.
TTITLE14=Anne Murray - The Last Thing On My Mind
TTITLE15=Wanda Jackson - Crazy
TTITLE16=Lynn Anderson - When I Dream
TTITLE17=Skeeter Davis - The End Of The World
TTITLE18=Patsy Cline - Just Out Of Reach
TTITLE19=Billie Jo Spears - Dallas
EXTD=
EXTT0=
EXTT1=
EXTT2=
EXTT3=
EXTT4=
EXTT5=
EXTT6=
EXTT7=
EXTT8=
EXTT9=
EXTT10=
EXTT11=
EXTT12=
EXTT13=
EXTT14=
EXTT15=
EXTT16=
EXTT17=
EXTT18=
EXTT19=
PLAYORDER=
